<?xml version="1.0" standalone="no"?>
<!DOCTYPE svg PUBLIC "-//W3C//DTD SVG 20010904//EN"
 "http://www.w3.org/TR/2001/REC-SVG-20010904/DTD/svg10.dtd">
<svg version="1.0" xmlns="http://www.w3.org/2000/svg"
 width="450.000000pt" height="253.000000pt" viewBox="0 0 450.000000 253.000000"
 preserveAspectRatio="xMidYMid meet">
<metadata>
Created by potrace 1.10, written by Peter Selinger 2001-2011
</metadata>
<g transform="translate(0.000000,253.000000) scale(0.100000,-0.100000)"
fill="#000000" stroke="none">
<path d="M2226 2368 c-3 -13 -6 -34 -6 -48 0 -15 -4 -30 -10 -36 -5 -5 -12
-23 -14 -39 -8 -53 -26 -116 -41 -145 -8 -15 -11 -30 -8 -34 4 -3 1 -6 -5 -6
-7 0 -12 -8 -12 -18 0 -9 -9 -23 -21 -30 -12 -7 -18 -16 -15 -19 17 -17 -189
-253 -221 -253 -5 0 -15 -9 -22 -19 -8 -11 -20 -17 -27 -14 -6 2 -18 -4 -25
-14 -15 -20 -135 -83 -159 -83 -8 0 -28 -7 -43 -15 -26 -13 -80 -24 -151 -28
-16 -1 -32 -9 -34 -16 -4 -11 7 -13 59 -7 115 13 266 68 352 128 l27 19 63
-29 c46 -22 75 -29 108 -27 24 1 50 -2 57 -8 8 -6 17 -5 26 2 11 10 20 10 37
0 22 -11 22 -12 4 -25 -12 -9 -23 -10 -36 -4 -27 15 -37 11 -15 -5 17 -13 17
-15 3 -21 -24 -9 -21 -31 5 -40 l21 -6 -24 -19 c-13 -9 -20 -21 -16 -25 4 -4
17 2 28 15 16 17 24 19 34 11 19 -15 7 -43 -16 -37 -24 6 -13 -20 11 -28 10
-3 21 -14 23 -23 4 -16 5 -16 12 1 5 12 2 22 -11 32 -18 13 -18 14 -1 20 9 4
17 13 17 20 0 7 -8 16 -17 20 -17 6 -17 7 0 19 23 17 22 33 -3 41 -20 6 -20 7
2 26 16 14 19 22 10 26 -7 2 -18 11 -26 18 -15 16 -179 95 -184 90 -6 -6 87
-56 123 -66 20 -6 34 -13 31 -16 -9 -9 -86 -11 -81 -3 3 4 -10 6 -29 3 -19 -2
-50 3 -72 13 -22 9 -42 18 -46 18 -21 3 -10 19 52 75 164 148 285 371 297 554
6 76 1 99 -11 55z m-77 -802 c18 -22 -11 -41 -40 -25 -22 11 -22 12 -4 25 24
17 30 17 44 0z"/>
<path d="M2261 2344 c-2 -77 30 -197 74 -289 116 -237 314 -408 560 -484 70
-22 226 -41 212 -25 -9 9 -8 9 -97 24 -36 6 -87 18 -115 27 -77 25 -206 89
-197 98 4 5 2 5 -4 2 -18 -11 -54 31 -55 66 -2 30 -2 30 -6 5 -5 -33 -19 -36
-28 -8 -4 11 -15 20 -27 20 -11 0 -22 8 -25 20 -3 11 -10 20 -17 20 -11 1 -86
90 -120 144 -31 49 -76 140 -76 154 0 6 -5 12 -11 12 -6 0 -9 9 -6 20 3 13 1
18 -6 13 -6 -4 -8 2 -5 15 4 12 3 22 -2 22 -4 0 -11 17 -14 38 -3 20 -8 51
-11 69 -3 18 -10 43 -15 55 -7 20 -9 17 -9 -18z"/>
<path d="M2587 2176 c-4 -10 -1 -13 8 -9 8 3 12 9 9 14 -7 12 -11 11 -17 -5z"/>
<path d="M2238 2163 c7 -3 16 -2 19 1 4 3 -2 6 -13 5 -11 0 -14 -3 -6 -6z"/>
<path d="M1827 2152 c-10 -2 -16 -9 -14 -15 6 -18 24 -19 31 -1 8 20 6 21 -17
16z"/>
<path d="M1880 2156 c0 -2 7 -7 16 -10 8 -3 12 -2 9 4 -6 10 -25 14 -25 6z"/>
<path d="M2533 2153 c-22 -8 -14 -18 16 -18 19 0 27 4 24 13 -5 12 -18 14 -40
5z"/>
<path d="M2642 2145 c-7 -8 -22 -15 -33 -15 -11 0 -18 -4 -14 -9 6 -10 -32
-26 -51 -23 -7 1 -14 -4 -17 -11 -7 -18 42 -10 61 10 7 7 19 13 26 13 8 0 19
7 26 15 16 19 43 19 81 -1 17 -8 36 -13 42 -11 7 3 3 8 -8 12 -11 3 -32 13
-47 21 -33 18 -49 17 -66 -1z"/>
<path d="M1955 2130 c3 -5 11 -10 16 -10 6 0 7 5 4 10 -3 6 -11 10 -16 10 -6
0 -7 -4 -4 -10z"/>
<path d="M1775 2120 c-3 -5 -18 -10 -33 -10 -19 0 -23 -3 -15 -11 8 -8 19 -6
42 5 31 17 39 26 22 26 -6 0 -13 -4 -16 -10z"/>
<path d="M2490 2119 c0 -5 5 -7 10 -4 6 3 10 8 10 11 0 2 -4 4 -10 4 -5 0 -10
-5 -10 -11z"/>
<path d="M1853 2105 c0 -8 5 -15 11 -15 15 0 44 20 29 20 -6 0 -18 2 -26 5 -8
4 -14 0 -14 -10z"/>
<path d="M2647 2093 c7 -17 63 -17 63 0 0 9 -12 13 -34 13 -22 -1 -32 -5 -29
-13z"/>
<path d="M1815 2076 c-19 -15 -19 -15 7 -16 15 0 30 -4 33 -10 3 -5 13 -10 22
-10 18 0 65 35 56 43 -3 3 -12 0 -20 -8 -19 -19 -53 -19 -67 0 -10 14 -13 14
-31 1z"/>
<path d="M2597 2064 c3 -7 11 -14 18 -14 7 0 22 -3 32 -6 16 -6 15 -4 -2 8
-32 23 -55 29 -48 12z"/>
<path d="M2748 2073 c-10 -2 -18 -9 -18 -14 0 -5 -7 -9 -15 -9 -8 0 -15 -5
-15 -11 0 -6 -7 -9 -15 -5 -8 3 -15 1 -15 -4 0 -17 24 -11 63 15 20 14 37 28
37 30 0 3 -1 4 -2 4 -2 -1 -11 -3 -20 -6z"/>
<path d="M2488 2053 c7 -3 16 -2 19 1 4 3 -2 6 -13 5 -11 0 -14 -3 -6 -6z"/>
<path d="M2018 2043 c7 -3 16 -2 19 1 4 3 -2 6 -13 5 -11 0 -14 -3 -6 -6z"/>
<path d="M2530 2043 c0 -4 5 -15 10 -23 8 -13 10 -13 10 2 0 9 -4 20 -10 23
-5 3 -10 3 -10 -2z"/>
<path d="M2574 2038 c-4 -6 0 -16 8 -22 8 -6 17 -18 20 -25 3 -12 5 -12 11 1
4 12 -1 19 -14 23 -12 4 -18 12 -15 21 6 17 0 19 -10 2z"/>
<path d="M1831 2005 c-1 -26 3 -30 24 -30 14 0 25 3 25 8 0 4 -7 7 -15 7 -9 0
-20 10 -25 23 -8 20 -9 20 -9 -8z"/>
<path d="M1950 2014 c0 -8 5 -12 10 -9 6 3 10 10 10 16 0 5 -4 9 -10 9 -5 0
-10 -7 -10 -16z"/>
<path d="M1910 2000 c0 -5 5 -10 10 -10 6 0 10 5 10 10 0 6 -4 10 -10 10 -5 0
-10 -4 -10 -10z"/>
<path d="M2188 1984 c-48 -24 -65 -41 -53 -52 3 -3 9 -1 13 5 4 7 32 23 62 37
47 22 57 23 75 12 37 -24 55 -27 55 -9 0 9 -3 13 -6 10 -4 -3 -15 -2 -26 4
-35 19 -73 17 -120 -7z"/>
<path d="M1801 1984 c0 -11 3 -14 6 -6 3 7 2 16 -1 19 -3 4 -6 -2 -5 -13z"/>
<path d="M1802 1920 c0 -19 2 -27 5 -17 2 9 2 25 0 35 -3 9 -5 1 -5 -18z"/>
<path d="M1832 1920 c0 -19 2 -27 5 -17 2 9 2 25 0 35 -3 9 -5 1 -5 -18z"/>
<path d="M2163 1903 c0 -8 9 -11 26 -6 36 8 36 10 3 15 -19 3 -29 0 -29 -9z"/>
<path d="M2279 1900 c-13 -10 -18 -19 -11 -20 6 0 12 5 12 10 0 6 3 9 8 9 18
-3 32 2 32 11 0 16 -16 12 -41 -10z"/>
<path d="M2345 1910 c-3 -5 -1 -10 4 -10 6 0 11 5 11 10 0 6 -2 10 -4 10 -3 0
-8 -4 -11 -10z"/>
<path d="M2099 1876 c8 -9 20 -16 28 -16 7 0 25 -7 39 -16 23 -16 24 -18 8
-36 -15 -16 -19 -28 -23 -72 -1 -4 -8 -5 -17 -2 -8 3 -12 2 -9 -3 3 -5 1 -12
-5 -16 -5 -3 -10 0 -10 7 0 10 -2 10 -9 -1 -8 -12 -18 -10 -64 12 -80 40 -83
32 -4 -9 37 -19 73 -32 80 -28 7 4 9 4 5 -1 -10 -10 41 -37 54 -28 6 3 -2 13
-17 21 l-29 15 27 14 c23 11 27 20 25 47 -1 22 5 40 20 57 l23 24 -26 7 c-15
3 -32 11 -38 16 -7 5 -25 12 -41 16 -26 6 -28 5 -17 -8z"/>
<path d="M2235 1880 c3 -5 8 -10 11 -10 2 0 4 5 4 10 0 6 -5 10 -11 10 -5 0
-7 -4 -4 -10z"/>
<path d="M2385 1880 c3 -6 -6 -15 -22 -20 -92 -34 -118 -69 -65 -88 15 -5 35
-13 45 -17 12 -5 17 -2 17 8 0 9 8 21 18 26 16 10 16 10 -1 11 -10 0 -20 -6
-23 -14 -3 -8 -13 -13 -22 -11 -9 2 -20 4 -24 4 -5 1 -8 9 -8 19 0 11 12 22
34 30 39 14 79 46 69 56 -10 10 -25 7 -18 -4z"/>
<path d="M1800 1860 c0 -11 4 -20 9 -20 5 0 7 9 4 20 -3 11 -7 20 -9 20 -2 0
-4 -9 -4 -20z"/>
<path d="M1831 1864 c0 -11 3 -14 6 -6 3 7 2 16 -1 19 -3 4 -6 -2 -5 -13z"/>
<path d="M2631 1834 c0 -11 3 -14 6 -6 3 7 2 16 -1 19 -3 4 -6 -2 -5 -13z"/>
<path d="M2215 1821 c-3 -6 4 -15 15 -21 17 -9 20 -8 20 10 0 20 -24 28 -35
11z"/>
<path d="M2190 1765 c0 -23 2 -24 20 -15 11 6 25 8 30 5 6 -3 10 0 10 8 0 8
-7 18 -16 21 -31 12 -44 6 -44 -19z"/>
<path d="M2434 1770 c22 -11 44 -20 50 -20 19 0 -28 27 -59 34 -27 5 -26 4 9
-14z"/>
<path d="M2267 1763 c-3 -4 1 -16 8 -26 9 -13 15 -15 20 -7 4 7 1 19 -8 27 -8
8 -17 11 -20 6z"/>
<path d="M2370 1755 c0 -8 9 -19 20 -25 11 -6 20 -17 20 -25 0 -8 -9 -20 -20
-27 -21 -13 -28 -48 -9 -48 5 0 7 5 4 11 -11 17 27 39 48 28 13 -7 28 -4 57
12 56 32 61 17 5 -15 -44 -26 -60 -59 -32 -69 8 -3 6 -9 -7 -19 -21 -16 -14
-38 12 -38 13 0 11 -3 -6 -16 -16 -11 -21 -22 -17 -35 4 -11 2 -19 -4 -19 -6
0 -11 9 -11 20 0 10 -10 25 -22 31 l-23 12 23 10 c29 13 28 21 -5 37 l-28 13
28 11 c28 10 37 26 14 26 -19 0 -50 -37 -42 -49 3 -6 14 -11 23 -11 13 0 12
-5 -8 -20 -21 -17 -23 -21 -10 -30 8 -5 21 -10 28 -10 21 0 13 -16 -13 -28
-14 -6 -25 -17 -25 -23 0 -7 3 -9 7 -6 3 4 12 2 20 -5 10 -8 12 -8 8 4 -5 12
3 15 37 15 41 0 42 0 20 -15 -18 -12 -22 -24 -22 -65 0 -62 17 -52 22 11 l3
44 83 43 c46 24 90 49 98 55 7 7 18 9 24 5 16 -10 12 11 -5 25 -8 7 -13 15
-10 19 5 9 -105 47 -122 43 -7 -2 -13 2 -13 8 0 5 0 13 0 18 0 4 3 7 8 7 4 0
13 4 19 8 7 4 21 3 32 -2 14 -8 22 -7 30 3 9 11 7 14 -11 14 -13 0 -65 19
-116 41 -103 45 -112 48 -112 26z m80 -21 c44 -18 48 -25 25 -44 -20 -16 -43
-6 -55 24 -5 13 -15 26 -22 29 -9 4 -10 6 -1 6 7 1 31 -6 53 -15z m62 -103 c4
-1 4 -9 1 -18 -6 -16 -5 -16 10 -4 14 11 23 12 44 2 l26 -12 -21 -15 c-22 -15
-72 -10 -72 7 0 5 -6 9 -14 9 -18 0 -29 16 -22 29 4 5 14 8 24 6 9 -2 20 -4
24 -4z m141 -60 c4 -5 -17 -20 -47 -35 -50 -25 -58 -26 -77 -13 -20 14 -19 15
23 40 41 24 81 27 101 8z m-149 1 c2 -4 1 -14 -4 -22 -7 -11 -11 -11 -24 -1
-9 7 -13 17 -10 22 7 11 31 12 38 1z m11 -54 c31 -14 32 -22 3 -35 -17 -7 -29
-6 -46 5 -21 14 -21 15 -5 28 22 16 17 16 48 2z"/>
<path d="M2453 1705 c0 -7 6 -11 14 -8 7 3 13 6 13 8 0 2 -6 5 -13 8 -8 3 -14
-1 -14 -8z"/>
<path d="M2570 1550 c8 -5 20 -10 25 -10 6 0 3 5 -5 10 -8 5 -19 10 -25 10 -5
0 -3 -5 5 -10z"/>
<path d="M2310 1735 c0 -8 7 -15 15 -15 8 0 15 -7 15 -15 0 -8 -7 -15 -16 -15
-9 0 -14 -6 -11 -12 2 -7 12 -13 23 -13 30 0 27 65 -3 76 -17 6 -23 5 -23 -6z"/>
<path d="M2500 1745 c0 -2 9 -9 20 -15 15 -8 20 -8 20 3 0 7 -9 13 -20 14 -11
1 -20 0 -20 -2z"/>
<path d="M2560 1721 c0 -9 30 -24 36 -18 2 1 -6 8 -16 15 -11 7 -20 8 -20 3z"/>
<path d="M2192 1691 c-1 -32 18 -54 49 -56 31 -3 22 12 -12 19 -35 7 -35 25 2
43 17 9 19 13 7 13 -9 0 -23 2 -31 5 -10 4 -14 -2 -15 -24z"/>
<path d="M2370 1699 c0 -11 5 -17 10 -14 6 3 10 13 10 21 0 8 -4 14 -10 14 -5
0 -10 -9 -10 -21z"/>
<path d="M2273 1674 c0 -20 2 -22 13 -13 8 6 14 15 14 19 0 4 -6 10 -14 13 -9
4 -13 -2 -13 -19z"/>
<path d="M1860 1660 c0 -5 15 -14 34 -21 19 -7 32 -18 29 -24 -6 -17 -52 -37
-65 -29 -7 4 -8 2 -4 -4 4 -7 3 -12 -3 -12 -6 0 -15 -10 -22 -21 -8 -15 -8
-19 0 -15 6 4 11 3 11 -1 0 -5 25 -17 55 -28 44 -14 59 -16 77 -7 l23 12 -22
-6 c-25 -6 -63 3 -63 15 0 14 46 30 61 20 22 -13 33 -11 20 5 -15 18 1 30 30
21 19 -6 19 -8 4 -25 -14 -16 -14 -19 0 -33 20 -21 19 -31 -2 -22 -14 5 -15 3
-7 -5 13 -13 54 -5 54 10 0 5 -12 15 -26 23 l-25 13 28 13 28 13 -30 15 c-28
15 -28 16 -8 24 11 4 24 12 28 18 9 15 -2 14 -29 -4 -26 -17 -76 -11 -76 9 -1
13 -100 59 -100 46z m118 -91 c-20 -13 -44 -11 -57 5 -10 11 -8 16 5 24 23 13
73 -16 52 -29z m-63 -5 c17 -13 18 -16 5 -24 -8 -5 -24 -10 -35 -10 -20 0 -53
16 -45 22 48 31 50 31 75 12z"/>
<path d="M2335 1640 c-3 -5 -2 -10 4 -10 5 0 13 5 16 10 3 6 2 10 -4 10 -5 0
-13 -4 -16 -10z"/>
<path d="M2191 1623 c-1 -7 8 -17 20 -24 l21 -11 -21 -15 -21 -14 22 -20 23
-19 -22 -6 c-30 -8 -29 -18 4 -33 27 -12 27 -13 8 -27 -10 -8 -24 -14 -29 -14
-13 -1 34 -29 48 -30 6 0 1 6 -10 14 -18 14 -18 15 -1 21 9 4 17 13 17 21 0 7
-8 18 -17 24 -17 10 -17 10 0 20 23 15 22 27 -5 36 l-22 7 24 19 c20 16 21 21
9 29 -7 5 -19 9 -26 9 -6 0 -14 6 -16 13 -4 9 -6 9 -6 0z"/>
<path d="M2274 1616 c-10 -8 -15 -18 -11 -22 4 -4 15 0 24 9 22 21 12 31 -13
13z"/>
<path d="M2310 1619 c0 -6 9 -13 20 -16 11 -3 20 -9 20 -13 0 -13 -47 -28 -61
-19 -22 13 -33 11 -20 -5 8 -10 9 -16 1 -21 -15 -9 -12 -35 5 -35 8 0 15 -4
15 -9 0 -5 -7 -11 -15 -15 -23 -9 -18 -25 13 -37 l27 -11 -29 -15 -30 -16 27
-14 c34 -17 34 -31 2 -39 -21 -5 -25 -12 -25 -44 0 -37 2 -40 58 -65 96 -46
96 -46 -15 -99 -32 -16 -52 -36 -36 -36 5 0 14 5 21 12 7 7 12 8 12 4 0 -4 17
6 38 22 20 16 50 33 66 39 l29 9 -35 21 c-38 22 -48 50 -48 129 0 35 -3 42
-15 38 -15 -6 -45 11 -45 26 0 13 30 20 56 14 23 -6 24 -10 24 -90 0 -74 2
-84 22 -98 26 -18 38 -20 38 -6 0 6 -7 10 -15 10 -8 0 -19 8 -24 18 -12 22 -9
131 3 151 6 10 5 12 -2 7 -8 -4 -16 3 -22 19 -8 20 -15 25 -30 20 -11 -3 -29
-3 -41 0 -31 10 -4 38 30 31 14 -3 20 -3 13 0 -10 5 -10 9 -1 20 8 9 8 14 1
14 -6 0 -13 -4 -17 -10 -3 -6 -15 -5 -31 2 -22 10 -23 13 -9 27 12 13 21 13
45 4 17 -6 30 -7 30 -2 0 5 -7 9 -17 9 -15 0 -15 1 0 18 22 24 22 27 -8 46
-15 10 -25 12 -25 5z m32 -321 c3 -52 -1 -57 -28 -30 -10 9 -20 15 -23 12 -3
-3 -8 6 -9 19 -3 17 5 31 25 47 30 24 30 24 35 -48z"/>
<path d="M1406 1521 c-3 -4 0 -8 7 -9 7 0 30 -6 52 -12 22 -6 50 -13 62 -15
61 -9 273 -92 273 -106 0 -5 6 -9 14 -9 8 0 24 -11 37 -25 13 -13 29 -25 34
-25 17 -1 88 -78 81 -88 -4 -6 3 -8 16 -5 23 6 23 6 -2 -23 -24 -27 -24 -28
-2 -9 l24 20 24 -30 c14 -17 29 -35 34 -41 5 -7 6 -15 3 -18 -4 -3 -1 -6 6 -6
6 0 16 -11 21 -25 5 -14 14 -25 20 -25 6 0 9 -4 6 -9 -4 -5 10 -41 30 -80 20
-39 34 -78 31 -86 -4 -8 -24 -25 -46 -39 -21 -14 -42 -30 -46 -36 -10 -16 4
-12 27 9 16 16 25 18 44 9 13 -6 24 -15 24 -19 0 -14 -38 -29 -56 -22 -11 4
-15 3 -11 -4 4 -6 29 -19 56 -28 41 -15 50 -23 59 -54 10 -33 11 -30 7 29 -2
36 -6 72 -8 80 -72 303 -264 529 -552 648 -102 42 -257 73 -269 53z m797 -671
c6 -23 -5 -25 -35 -9 -17 9 -18 13 -7 20 22 14 36 10 42 -11z m15 -68 c4 -24
-9 -28 -40 -11 -21 11 -21 12 -3 25 25 18 39 13 43 -14z"/>
<path d="M2975 1515 c-144 -27 -282 -95 -417 -207 -44 -36 -136 -144 -165
-192 -29 -49 -103 -205 -103 -218 0 -8 -4 -18 -9 -23 -14 -16 -26 -139 -12
-131 6 4 9 12 6 17 -8 11 15 12 34 0 10 -6 5 -12 -18 -22 -18 -8 -31 -21 -31
-32 0 -15 5 -13 25 10 16 19 25 23 25 13 1 -13 2 -13 13 0 12 15 47 34 77 43
10 3 3 11 -22 27 l-38 22 21 17 c19 15 20 20 8 38 -7 12 -19 19 -27 15 -11 -4
-10 -9 7 -22 l22 -16 -25 -13 c-21 -12 -28 -12 -41 -1 -13 11 -13 16 -2 29 7
9 21 42 32 75 10 32 25 60 32 63 7 3 13 10 12 17 -3 17 23 67 56 110 91 117
127 156 138 150 7 -4 9 -4 5 1 -9 9 7 25 50 50 17 11 32 23 32 27 0 4 9 8 19
8 10 0 22 7 25 16 3 8 10 13 15 9 5 -3 12 -1 15 4 3 5 18 12 32 15 14 4 38 15
52 24 25 16 86 36 142 47 81 15 136 29 145 37 13 12 -48 8 -130 -7z m-675
-695 c0 -5 -4 -10 -10 -10 -5 0 -10 5 -10 10 0 6 5 10 10 10 6 0 10 -4 10 -10z
m66 -24 c18 -14 18 -15 -9 -25 -29 -11 -67 0 -67 19 0 21 49 25 76 6z"/>
<path d="M2006 1455 c3 -7 16 -16 30 -19 23 -6 24 -9 21 -81 -2 -60 -7 -78
-22 -91 -18 -14 -18 -15 -2 -10 10 3 23 6 28 6 6 0 9 38 7 91 l-3 91 -32 13
c-27 11 -31 11 -27 0z"/>
<path d="M2087 1443 c-11 -10 -8 -87 4 -103 9 -12 10 -10 6 9 -3 13 -2 34 3
47 7 16 6 24 -1 24 -8 0 -7 5 1 15 12 14 0 22 -13 8z"/>
<path d="M2418 1433 c-5 -54 -2 -183 5 -183 4 0 7 45 7 100 0 55 -2 100 -5
100 -3 0 -6 -8 -7 -17z"/>
<path d="M2137 1404 c-4 -4 2 -13 12 -20 16 -11 18 -20 11 -49 -4 -19 -5 -35
-2 -35 3 0 -3 -9 -12 -19 -14 -16 -23 -18 -42 -11 -32 12 -31 -2 1 -17 32 -14
50 1 65 55 14 52 13 82 -4 82 -8 0 -16 5 -18 11 -2 5 -7 7 -11 3z"/>
<path d="M2213 1388 c-18 -9 -23 -19 -23 -52 0 -23 -7 -52 -17 -65 -9 -13 -12
-22 -7 -19 5 2 24 11 42 18 28 13 32 19 32 51 0 21 -6 39 -12 42 -9 3 -7 10 7
21 23 18 11 20 -22 4z m14 -54 c2 -5 -3 -19 -11 -29 -14 -19 -15 -18 -14 13 1
30 17 40 25 16z"/>
<path d="M2080 1309 c0 -5 5 -7 10 -4 6 3 10 8 10 11 0 2 -4 4 -10 4 -5 0 -10
-5 -10 -11z"/>
<path d="M2447 1261 c-4 -17 -3 -21 5 -13 5 5 8 16 6 23 -3 8 -7 3 -11 -10z"/>
<path d="M2054 1242 c-9 -5 -8 -11 2 -20 12 -11 14 -10 14 5 0 15 2 16 10 3 7
-12 12 -12 22 -2 8 8 8 12 1 12 -6 0 -17 2 -25 5 -7 3 -18 1 -24 -3z"/>
<path d="M2210 1223 c-13 -15 -12 -16 4 -10 10 4 20 7 22 7 2 0 4 5 4 10 0 15
-13 12 -30 -7z"/>
<path d="M1926 1208 c3 -5 10 -6 15 -3 13 9 11 12 -6 12 -8 0 -12 -4 -9 -9z"/>
<path d="M2309 1210 c-9 -5 -26 -8 -38 -5 -12 2 -19 0 -16 -4 2 -5 20 -11 38
-13 26 -3 33 0 33 14 0 10 0 18 -1 18 0 0 -7 -5 -16 -10z"/>
<path d="M2143 1194 c0 -6 9 -9 19 -6 10 2 26 -2 36 -10 25 -22 62 -30 55 -12
-3 8 -13 14 -23 14 -11 0 -21 4 -24 9 -9 14 -63 19 -63 5z"/>
<path d="M1896 1181 c-10 -10 -18 -33 -18 -50 -1 -20 -6 -31 -15 -31 -8 0 -12
-4 -8 -10 13 -21 35 3 35 38 0 19 7 44 17 54 9 10 14 18 11 18 -3 0 -13 -9
-22 -19z"/>
<path d="M1927 1172 c-22 -24 -23 -82 -2 -82 22 0 18 -28 -5 -35 -25 -8 -26
-21 -2 -34 16 -9 16 -11 1 -26 -14 -14 -20 -15 -40 -5 -21 12 -21 14 -6 25 25
18 21 39 -12 53 -26 11 -33 10 -77 -16 -27 -16 -51 -36 -52 -46 -3 -16 -1 -15
17 3 12 12 28 21 37 21 8 0 13 4 10 9 -3 5 6 12 20 15 29 8 64 -1 64 -14 0
-14 -40 -32 -56 -26 -8 3 -13 2 -10 -3 10 -15 -23 -34 -46 -28 -22 6 -22 6 2
-13 14 -11 37 -22 51 -25 14 -3 31 -15 39 -25 17 -24 55 -26 77 -5 8 8 19 13
24 9 5 -3 18 5 28 18 23 28 18 38 -7 15 -16 -15 -20 -15 -40 -1 -25 18 -29 34
-7 34 20 0 19 20 -2 36 -17 13 -17 15 0 25 10 6 16 20 15 37 -1 15 4 38 11 52
11 22 9 21 -13 -5 -23 -26 -26 -28 -26 -10 0 11 7 31 16 43 18 27 13 29 -9 4z
m-58 -208 c-13 -16 -5 -18 19 -5 12 6 24 5 36 -4 16 -12 16 -16 4 -27 -22 -21
-39 -20 -62 0 -11 11 -31 23 -43 27 -13 3 -23 11 -23 16 0 16 43 28 63 17 15
-7 16 -12 6 -24z"/>
<path d="M2090 1172 c0 -9 74 -42 94 -42 8 0 17 4 20 9 4 5 -3 7 -14 4 -11 -3
-30 1 -42 9 -31 20 -58 29 -58 20z"/>
<path d="M2613 1135 c0 -22 2 -30 4 -17 2 12 2 30 0 40 -3 9 -5 -1 -4 -23z"/>
<path d="M1984 1138 l-19 -23 23 19 c21 18 27 26 19 26 -2 0 -12 -10 -23 -22z"/>
<path d="M2504 1144 c-18 -14 -18 -15 4 -4 12 6 22 13 22 15 0 8 -5 6 -26 -11z"/>
<path d="M2557 1153 c-10 -10 -8 -23 4 -23 5 0 7 5 4 10 -3 6 -1 10 4 10 17 0
13 -18 -6 -29 -16 -9 -16 -10 5 -11 17 0 22 6 22 25 0 24 -18 34 -33 18z"/>
<path d="M2513 1128 c-13 -6 -23 -17 -23 -24 0 -9 8 -7 25 8 35 30 34 34 -2
16z"/>
<path d="M2640 1100 c-12 -8 -11 -10 7 -10 12 0 23 -6 26 -12 2 -7 7 -10 11
-7 12 12 -29 38 -44 29z"/>
<path d="M2457 1081 c3 -10 0 -22 -6 -25 -17 -11 -13 -26 4 -20 16 7 21 64 6
64 -5 0 -7 -8 -4 -19z"/>
<path d="M2513 1088 c-23 -11 -31 -28 -13 -28 6 0 10 5 10 10 0 6 7 10 15 10
8 0 15 5 15 10 0 12 1 12 -27 -2z"/>
<path d="M1961 1078 c-1 -9 8 -20 19 -23 11 -3 20 -11 20 -16 0 -5 7 -9 15 -9
8 0 15 3 15 6 0 11 -29 34 -43 34 -9 0 -18 6 -20 13 -3 7 -6 6 -6 -5z"/>
<path d="M2280 1061 c0 -5 7 -12 16 -15 14 -5 15 -4 4 9 -14 17 -20 19 -20 6z"/>
<path d="M2569 1061 c12 -8 9 -12 -15 -23 -16 -7 -35 -19 -43 -26 -11 -11 -9
-12 15 -6 16 4 33 13 37 21 5 7 12 11 18 8 5 -4 9 3 9 14 0 13 -6 21 -17 21
-15 0 -16 -2 -4 -9z"/>
<path d="M2700 1061 c0 -5 10 -11 23 -15 32 -8 39 -7 32 4 -4 6 -10 8 -15 5
-5 -3 -11 -1 -15 5 -8 12 -25 13 -25 1z"/>
<path d="M2195 1038 c11 -7 34 -27 52 -44 35 -34 44 -33 15 2 -10 12 -34 29
-53 38 -19 9 -25 11 -14 4z"/>
<path d="M2285 1020 c3 -5 8 -10 11 -10 2 0 4 5 4 10 0 6 -5 10 -11 10 -5 0
-7 -4 -4 -10z"/>
<path d="M2628 1022 c-1 -4 -19 -18 -38 -30 -34 -22 -35 -22 -6 -16 16 4 37
15 48 26 14 14 23 16 38 8 27 -14 34 -12 20 5 -13 16 -56 21 -62 7z"/>
<path d="M1960 1010 c0 -5 5 -10 10 -10 6 0 10 5 10 10 0 6 -4 10 -10 10 -5 0
-10 -4 -10 -10z"/>
<path d="M2207 995 c3 -8 9 -12 14 -9 12 7 11 11 -5 17 -10 4 -13 1 -9 -8z"/>
<path d="M1990 993 c0 -11 43 -22 57 -15 12 7 8 10 -21 14 -20 2 -36 3 -36 1z"/>
<path d="M2448 993 c7 -3 16 -2 19 1 4 3 -2 6 -13 5 -11 0 -14 -3 -6 -6z"/>
<path d="M2697 980 c-14 -16 -21 -18 -43 -10 -22 9 -25 8 -16 -3 14 -16 -19
-39 -45 -31 -17 5 -17 5 -1 -6 14 -8 29 -5 70 16 29 15 55 31 56 35 2 5 8 7
13 3 5 -3 9 0 9 5 0 18 -24 12 -43 -9z"/>
<path d="M2500 970 c14 -11 31 -20 38 -20 22 0 4 17 -30 29 l-33 11 25 -20z"/>
<path d="M2240 920 c-9 -16 -8 -18 5 -14 8 4 15 12 15 20 0 20 -7 17 -20 -6z"/>
<path d="M2390 860 c0 -10 10 -20 22 -23 30 -8 31 -5 2 20 -22 20 -24 20 -24
3z"/>
<path d="M2238 863 c6 -2 9 -10 6 -15 -4 -7 -2 -8 5 -4 13 9 5 26 -12 25 -9 0
-8 -2 1 -6z"/>
<path d="M2415 810 c-16 -7 -17 -9 -3 -9 9 -1 20 4 23 9 7 11 7 11 -20 0z"/>
<path d="M1625 649 c-22 -5 -46 -17 -52 -26 -7 -9 -13 -14 -13 -10 0 16 -54
-41 -72 -77 -24 -48 -26 -135 -4 -187 20 -48 99 -116 150 -130 54 -15 115 1
170 44 23 17 44 36 47 41 4 4 23 -10 44 -33 61 -67 129 -75 204 -22 l27 20 19
-25 c21 -29 46 -31 68 -6 13 14 17 38 17 100 0 72 2 83 21 93 32 17 41 -1 43
-88 2 -90 16 -123 51 -123 36 0 52 31 50 98 -3 66 10 122 28 122 28 0 37 -25
37 -104 0 -90 13 -116 55 -108 14 2 28 8 31 13 3 5 12 2 20 -6 20 -19 48 -19
67 0 13 13 16 13 21 -1 8 -21 47 -14 66 11 10 13 15 43 15 91 0 74 14 107 44
102 26 -5 31 -19 31 -104 0 -66 3 -84 18 -97 23 -21 51 -22 58 -2 4 8 10 15
16 15 5 0 6 -4 3 -10 -3 -5 0 -10 7 -11 7 -1 22 -2 33 -3 37 -2 44 22 45 155
0 101 -3 129 -15 139 -14 11 -13 14 5 27 39 27 15 103 -33 103 -22 0 -57 -39
-57 -64 0 -11 7 -27 16 -37 15 -16 14 -20 -5 -40 -12 -13 -21 -18 -21 -13 0
21 -68 46 -107 40 -21 -4 -55 -7 -75 -6 -21 0 -38 -3 -38 -8 0 -14 -29 -10
-34 5 -3 7 -2 13 2 13 15 0 32 41 26 64 -5 21 -40 46 -63 46 -4 0 -18 -8 -29
-19 -25 -21 -29 -66 -7 -75 19 -7 19 -33 0 -53 -14 -13 -19 -12 -46 11 -36 31
-84 34 -127 9 -29 -17 -31 -17 -50 0 -19 18 -87 24 -96 8 -3 -5 -22 -7 -41 -4
-28 4 -40 0 -54 -16 l-18 -21 -47 26 c-32 18 -57 25 -79 22 -50 -7 -59 -11
-89 -39 -26 -24 -33 -25 -103 -21 -93 5 -120 -1 -141 -33 -16 -24 -15 -27 1
-45 12 -13 31 -20 56 -20 21 0 40 -4 44 -9 9 -15 -51 -51 -85 -51 -66 0 -110
47 -110 116 0 98 83 142 175 93 l45 -24 25 30 c13 17 24 33 25 37 0 16 -63 67
-91 72 -66 13 -86 14 -124 5z m132 -40 c45 -14 61 -36 40 -56 -15 -15 -18 -15
-38 3 -16 14 -36 19 -80 19 -54 0 -61 -3 -95 -37 -32 -31 -38 -44 -41 -90 -5
-62 17 -106 69 -138 79 -48 198 4 198 86 0 14 -9 16 -65 12 -63 -6 -65 -5 -65
18 0 24 2 24 90 24 l90 0 0 -32 c-1 -48 -33 -112 -71 -139 -49 -35 -143 -39
-197 -9 -113 64 -133 209 -41 301 54 54 115 65 206 38z m871 -15 c4 -29 -23
-51 -43 -34 -16 13 -20 42 -8 54 14 14 48 1 51 -20z m346 3 c9 -15 7 -21 -8
-32 -35 -26 -74 13 -44 43 16 16 38 12 52 -11z m-893 -115 c21 -18 33 -41 39
-70 l7 -42 -98 0 c-91 0 -99 -2 -99 -19 0 -26 46 -61 81 -61 16 0 38 9 50 21
13 13 27 18 40 14 48 -16 -30 -75 -98 -75 -38 0 -51 6 -78 33 -59 59 -59 135
0 194 28 28 40 33 79 33 36 0 52 -6 77 -28z m253 5 l23 -23 27 23 c37 31 89
31 121 -2 23 -23 25 -31 25 -130 0 -103 -1 -106 -22 -103 -20 3 -21 8 -19 86
3 96 -12 132 -54 132 -50 0 -65 -30 -65 -130 0 -89 0 -90 -25 -90 -25 0 -25 0
-25 94 0 73 -4 98 -16 110 -23 24 -60 19 -83 -10 -18 -22 -21 -41 -21 -111 0
-80 -1 -84 -21 -81 -19 3 -21 10 -22 126 -2 120 -2 122 21 122 13 0 22 -6 22
-16 0 -13 5 -12 26 5 35 28 79 27 108 -2z m521 -2 c23 -23 25 -31 25 -130 0
-98 -1 -105 -20 -105 -19 0 -20 7 -20 90 0 99 -15 130 -64 130 -46 0 -66 -42
-66 -136 0 -83 0 -84 -25 -84 l-25 0 0 125 0 125 26 0 c19 0 25 -4 20 -15 -7
-20 1 -19 31 5 36 28 88 26 118 -5z m-235 -110 c0 -117 -1 -125 -19 -125 -18
0 -20 9 -23 125 -3 124 -3 125 20 125 22 0 22 -2 22 -125z m350 0 l0 -125 -25
0 -25 0 0 125 0 125 25 0 25 0 0 -125z m-940 -43 c0 -11 -48 -13 -54 -3 -3 4
8 8 24 9 17 0 30 -3 30 -6z"/>
<path d="M1952 443 l-27 -28 37 -3 c21 -2 57 -2 80 0 l43 3 -27 28 c-16 15
-38 27 -53 27 -15 0 -37 -12 -53 -27z"/>
</g>
</svg>
